<svg width="80" height="78" viewBox="0 0 80 78" fill="none" xmlns="http://www.w3.org/2000/svg">
<g clip-path="url(#clip0)">
<g filter="url(#filter0_i)">
<path fill-rule="evenodd" clip-rule="evenodd" d="M13.643 9.03446C8.44593 9.08642 8.19229 9.09648 7.55327 9.27703C5.38798 9.88876 3.56558 11.3591 2.25339 13.5528C0.807587 15.9701 -0.0019523 19.4537 3.53573e-06 23.2495C0.000536946 24.3789 0.101974 24.7472 0.583554 25.3685C1.10398 26.0399 1.43141 26.0892 5.93579 26.1749C8.05334 26.2153 9.80248 26.2646 9.82284 26.2846C9.8432 26.3047 9.86987 32.4007 9.88214 39.8313C9.89432 47.2619 9.93014 57.4749 9.9617 62.5266C10.017 71.3615 10.026 71.7351 10.1972 72.3241C10.4815 73.3018 10.6901 73.767 11.1845 74.5252C11.9847 75.7527 13.3206 76.8472 14.7248 77.4258C15.8684 77.897 15.8299 77.8945 22.8888 77.9618C31.2933 78.0418 56.089 77.9867 57.7827 77.8841C59.1422 77.8018 59.9019 77.6275 60.7609 77.2007C62.6603 76.257 64.146 74.5055 64.7197 72.5334C64.9962 71.5832 65.0633 69.2951 65.0684 60.6461L65.0727 53.2544L62.5736 55.7134L60.0747 58.1724L60.0019 64.7234C59.9597 68.5155 59.8919 71.4168 59.8408 71.6128C59.7385 72.0052 59.3298 72.5399 59.0163 72.6915C58.3652 73.0065 57.2383 73.0239 37.4687 73.0239C17.9397 73.0239 16.8807 73.0085 16.0178 72.7114C15.8181 72.6426 15.6146 72.4503 15.3761 72.1046L15.0267 71.5983L14.9785 55.2094C14.952 46.1955 14.911 37.8953 14.8876 36.7647C14.8641 35.6341 14.8375 32.1109 14.8285 28.9355C14.8065 21.1087 14.7353 18.3391 14.5371 17.6073C14.2987 16.7266 13.6607 15.5912 13.0932 15.0371C12.5535 14.5104 12.1866 14.3045 11.5094 14.1487C11.1207 14.0593 11.3721 14.0395 13.5097 13.9917C17.6896 13.8981 44.2385 13.8475 49.2926 13.9235L54.0933 13.9957L54.849 14.2371C56.6984 14.8282 57.809 15.6695 58.9023 17.3075C59.4898 18.1878 59.7876 19.0481 59.9144 20.2316C59.9746 20.7931 60.02 23.5721 60.0313 27.3826C60.0415 30.8104 60.07 33.6151 60.0948 33.6153C60.1195 33.6155 61.2551 32.5176 62.6183 31.1756L65.0967 28.7358L65.0805 26.6487C65.0495 22.6423 64.9113 19.5569 64.7246 18.7007C64.2465 16.5086 63.0468 14.3279 61.4373 12.7256C59.7846 11.0803 57.9093 10.0042 55.5273 9.33415L54.4489 9.03087L36.7575 9.00559C27.0272 8.99168 16.6257 9.00463 13.643 9.03446ZM71.6958 26.4256C70.98 26.6711 70.2035 27.2557 68.7893 28.6137L67.4631 29.8873L71.8909 34.2499L76.3187 38.6126L77.665 37.2545C79.6933 35.2081 80.0663 34.549 79.9912 33.1424C79.9281 31.9603 79.7254 31.6734 77.1652 29.1422C75.9661 27.9569 74.8252 26.886 74.6296 26.7623C73.8785 26.2876 72.5447 26.1345 71.6958 26.4256ZM29.2225 28.8364C28.8115 28.9873 28.3077 29.3851 27.1561 30.4677C25.4334 32.0871 25.0549 32.4349 24.9892 32.4582C24.9527 32.4713 24.6707 32.2828 24.3625 32.0395C23.4991 31.3577 23.1695 31.2155 22.4443 31.2126C21.9098 31.2103 21.753 31.2482 21.333 31.4813C20.136 32.1457 19.6902 33.5326 20.3137 34.6527C20.7829 35.4956 22.6655 37.3917 23.7073 38.0706C24.2588 38.4301 24.9529 38.5756 25.4365 38.433C25.6399 38.373 25.9543 38.232 26.1351 38.1197C27.0056 37.579 31.3604 33.3381 31.9617 32.4455C32.2596 32.0033 32.3125 31.8506 32.3412 31.3502C32.3835 30.6135 32.2579 30.1557 31.8794 29.668C31.291 28.9097 30.0666 28.5265 29.2225 28.8364ZM37.4242 31.2437C36.5792 31.305 36.293 31.4259 35.8112 31.9244C35.3103 32.4427 35.0825 32.9583 35.0831 33.5718C35.0842 34.5564 35.6533 35.3977 36.6133 35.834C37.0185 36.0182 37.1099 36.0211 43.2473 36.0477C50.2878 36.0783 53.1292 36.0023 53.581 35.7713C54.0265 35.5435 54.4846 35.1111 54.6976 34.7173C54.9759 34.2026 54.9751 33.0271 54.6961 32.5109C54.4516 32.0586 53.7726 31.463 53.3486 31.3286C52.9957 31.2169 38.8335 31.1413 37.4242 31.2437ZM59.5792 37.7051C56.258 40.9646 51.6691 45.5015 49.3817 47.7868L45.2227 51.9419L44.5249 53.3595C44.1411 54.1392 43.6508 55.1627 43.4355 55.6339C43.2201 56.1051 42.7154 57.1993 42.3138 58.0653C41.4678 59.8904 41.1459 60.6107 40.477 62.1767C39.9514 63.4073 39.9369 63.55 40.2621 64.2762C40.6327 65.1037 41.2686 65.5446 42.0915 65.5446C42.4603 65.5446 42.8546 65.446 43.6286 65.1604C45.1525 64.5982 49.428 62.6928 52.4042 61.2498L53.7377 60.6033L56.0459 58.4158C57.3154 57.2127 61.996 52.6572 66.4473 48.2927L74.5407 40.3569L70.1758 36.0678C67.7751 33.7087 65.7674 31.7785 65.7144 31.7785C65.6613 31.7785 62.9004 34.4455 59.5792 37.7051ZM29.169 41.1799C28.7533 41.3652 28.1861 41.8427 26.49 43.4348C25.6829 44.1925 24.9889 44.8125 24.9479 44.8126C24.9069 44.8126 24.6668 44.634 24.4145 44.4159C23.376 43.5181 22.3911 43.3133 21.4034 43.7898C20.5453 44.2037 20.065 44.9719 20.0528 45.9498C20.0469 46.4184 20.0899 46.5973 20.2977 46.9673C20.8412 47.9353 22.8837 49.9482 23.9092 50.5263C24.1759 50.6766 24.5375 50.7921 24.8366 50.8225C25.789 50.9192 26.5396 50.3595 29.7422 47.1642C31.9617 44.9501 32.2893 44.5143 32.3415 43.7068C32.4095 42.6572 31.9739 41.8266 31.114 41.3665C30.5332 41.0556 29.6402 40.97 29.169 41.1799ZM37.602 43.5834C36.5617 43.6428 36.3172 43.735 35.8112 44.2587C35.3103 44.7769 35.0825 45.2926 35.0831 45.906C35.0842 46.8882 35.6512 47.7384 36.5797 48.1503C37.016 48.3438 37.0986 48.348 41.0692 48.3799L45.1142 48.4123L47.6029 45.9564L50.0916 43.5004L44.3135 43.5153C41.1356 43.5235 38.1154 43.5542 37.602 43.5834ZM29.3708 53.4631C28.9134 53.5785 28.3861 53.9964 26.6671 55.6059C25.7626 56.4528 24.999 57.1459 24.9704 57.1463C24.9417 57.1466 24.6762 56.9557 24.3803 56.722C23.573 56.0845 23.0897 55.8796 22.3999 55.8825C21.731 55.8852 21.3048 56.0685 20.7653 56.585C20.2774 57.0523 20.0505 57.5896 20.0479 58.284C20.0448 59.0769 20.2777 59.4931 21.3571 60.6245C22.8264 62.1644 23.606 62.8169 24.1689 62.9779C24.794 63.1567 25.606 63.0971 26.1363 62.8334C26.5828 62.6115 31.5926 57.7228 32.0457 57.0669C32.2784 56.7301 32.3163 56.5893 32.3433 55.9617C32.3776 55.166 32.2377 54.7213 31.7889 54.1989C31.3186 53.6513 30.0971 53.2796 29.3708 53.4631ZM49.7404 56.375C51.2007 57.8631 51.5834 58.2956 51.5054 58.3696C51.4119 58.4583 46.7999 60.5584 46.6985 60.5584C46.6605 60.5584 46.3029 60.2389 45.904 59.8485L45.1789 59.1387L45.5591 58.2958C46.6659 55.8421 47.2286 54.6331 47.3478 54.4521L47.4806 54.2505L48.2533 54.9487C48.6782 55.3327 49.3475 55.9745 49.7404 56.375Z" fill="url(#paint0_linear)" fill-opacity="0.3"/>
</g>
</g>
<defs>
<filter id="filter0_i" x="0" y="9" width="80" height="73" filterUnits="userSpaceOnUse" color-interpolation-filters="sRGB">
<feFlood flood-opacity="0" result="BackgroundImageFix"/>
<feBlend mode="normal" in="SourceGraphic" in2="BackgroundImageFix" result="shape"/>
<feColorMatrix in="SourceAlpha" type="matrix" values="0 0 0 0 0 0 0 0 0 0 0 0 0 0 0 0 0 0 127 0" result="hardAlpha"/>
<feOffset dy="4"/>
<feGaussianBlur stdDeviation="2"/>
<feComposite in2="hardAlpha" operator="arithmetic" k2="-1" k3="1"/>
<feColorMatrix type="matrix" values="0 0 0 0 0.247059 0 0 0 0 0.517647 0 0 0 0 0.807843 0 0 0 0.6 0"/>
<feBlend mode="normal" in2="shape" result="effect1_innerShadow"/>
</filter>
<linearGradient id="paint0_linear" x1="85.3252" y1="39.7754" x2="4.95745" y2="70.556" gradientUnits="userSpaceOnUse">
<stop stop-color="#5F9BFE"/>
<stop offset="1" stop-color="#13266B"/>
</linearGradient>
<clipPath id="clip0">
<rect width="80" height="78" fill="white"/>
</clipPath>
</defs>
</svg>
