<svg width="80" height="78" viewBox="0 0 80 78" fill="none" xmlns="http://www.w3.org/2000/svg">
<g filter="url(#filter0_i)">
<path fill-rule="evenodd" clip-rule="evenodd" d="M42.2885 13H48.0804C53.058 13 57.0932 17.0294 57.0932 21.9999V27.4623C57.0932 32.4328 53.058 36.4622 48.0804 36.4622H47.6358V41.6697H76.7198C77.0003 41.6697 77.27 41.7158 77.5217 41.8007C78.8927 41.8143 80 42.9283 80 44.3006V54.729C80 56.1097 78.8791 57.229 77.4964 57.229C76.1137 57.229 74.9929 56.1097 74.9929 54.729V46.6696H47.6358V53.6633C47.6358 53.9709 47.5803 54.2656 47.4784 54.5378H48.2625C53.2402 54.5378 57.2754 58.5672 57.2754 63.5377V69.0001C57.2754 73.9706 53.2402 78 48.2625 78H42.4708C37.4931 78 33.458 73.9706 33.458 69.0001V63.5377C33.458 58.5672 37.4931 54.5378 42.4708 54.5378H42.7861C42.6844 54.2656 42.6287 53.9709 42.6287 53.6633V46.6696H15.0974V54.5424C19.9396 54.6968 23.8174 58.665 23.8174 63.5377V69.0001C23.8174 73.9706 19.7823 78 14.8046 78H9.01283C4.03518 78 0 73.9706 0 69.0001V63.5377C0 58.5672 4.03518 54.5378 9.01283 54.5378H10.0903V44.4737C10.0783 44.3741 10.072 44.2726 10.072 44.1697C10.072 42.789 11.1929 41.6697 12.5755 41.6697H42.6287V36.4622H42.2885C37.3109 36.4622 33.2757 32.4328 33.2757 27.4623V21.9999C33.2757 17.0294 37.3109 13 42.2885 13ZM37.4637 63.5377C37.4637 60.7763 39.7055 58.5377 42.4708 58.5377H48.2625C51.028 58.5377 53.2697 60.7763 53.2697 63.5377V69.0001C53.2697 71.7614 51.028 74 48.2625 74H42.4708C39.7055 74 37.4637 71.7614 37.4637 69.0001V63.5377ZM9.01283 58.5377C6.24747 58.5377 4.0057 60.7763 4.0057 63.5377V69.0001C4.0057 71.7614 6.24747 74 9.01283 74H14.8046C17.5699 74 19.8117 71.7614 19.8117 69.0001V63.5377C19.8117 60.7763 17.5699 58.5377 14.8046 58.5377H9.01283Z" fill="url(#paint0_linear)" fill-opacity="0.3"/>
</g>
<defs>
<filter id="filter0_i" x="0" y="13" width="80" height="69" filterUnits="userSpaceOnUse" color-interpolation-filters="sRGB">
<feFlood flood-opacity="0" result="BackgroundImageFix"/>
<feBlend mode="normal" in="SourceGraphic" in2="BackgroundImageFix" result="shape"/>
<feColorMatrix in="SourceAlpha" type="matrix" values="0 0 0 0 0 0 0 0 0 0 0 0 0 0 0 0 0 0 127 0" result="hardAlpha"/>
<feOffset dy="4"/>
<feGaussianBlur stdDeviation="2"/>
<feComposite in2="hardAlpha" operator="arithmetic" k2="-1" k3="1"/>
<feColorMatrix type="matrix" values="0 0 0 0 0.247059 0 0 0 0 0.517647 0 0 0 0 0.807843 0 0 0 0.6 0"/>
<feBlend mode="normal" in2="shape" result="effect1_innerShadow"/>
</filter>
<linearGradient id="paint0_linear" x1="85.3252" y1="41.9913" x2="6.24089" y2="74.1443" gradientUnits="userSpaceOnUse">
<stop stop-color="#5F9BFE"/>
<stop offset="1" stop-color="#13266B"/>
</linearGradient>
</defs>
</svg>
