<svg width="151" height="54" viewBox="0 0 151 54" fill="none" xmlns="http://www.w3.org/2000/svg">
<path fill-rule="evenodd" clip-rule="evenodd" d="M32.2119 27.9845C32.465 28.0326 32.6931 28.1449 32.9392 28.2127C33.2654 28.4106 33.6006 28.5835 33.8733 28.908C33.9589 28.9294 33.9803 29.0328 34.0159 29.1041C34.2352 29.368 34.4795 29.621 34.5365 29.9527C34.622 30.0917 34.6329 30.2593 34.722 30.3966C34.7915 30.6017 34.7861 30.837 34.8308 31.0491L34.8627 41.1236C34.7968 41.2448 34.8592 41.4195 34.8093 41.5479C34.729 41.7761 34.7238 42.0364 34.5918 42.2431C34.5027 42.5819 34.3155 42.8797 34.0801 43.156C33.9714 43.3966 33.6987 43.5214 33.515 43.7211C33.2708 43.8708 33.0533 44.0902 32.7662 44.1347C32.5826 44.2648 32.3526 44.2809 32.1351 44.329C32.0299 44.3131 31.9551 44.3576 31.8642 44.3736L15.1274 44.3629C14.967 44.3094 14.7744 44.3397 14.6282 44.2541C14.523 44.165 14.359 44.2149 14.2681 44.0902C14.097 44.1115 14.006 43.935 13.8563 43.9065C13.5461 43.6284 13.1966 43.377 12.9756 43.0258C12.783 42.7138 12.6084 42.3947 12.4978 42.047C12.4211 41.8973 12.3784 41.7352 12.3677 41.5586C12.373 41.4641 12.3623 41.3785 12.3338 41.2983L12.291 31.2345C12.3446 31.1097 12.3266 30.9582 12.3446 30.8209C12.4372 30.5748 12.4157 30.2807 12.5727 30.0597C12.603 29.8492 12.7706 29.6941 12.8347 29.4945C13.0112 29.3715 12.9952 29.195 13.1717 29.072C13.4177 28.7083 13.7885 28.5104 14.1272 28.3C14.4517 28.1093 14.8315 28.0504 15.2041 27.9738L31.6253 27.931C31.8481 27.8828 31.9962 28.0165 32.2119 27.9845ZM31.6894 28.7351C31.7892 28.7992 31.9354 28.7475 32.0478 28.7778L32.6236 28.9847V29.0382C32.4739 29.6051 32.0817 30.0721 31.8196 30.5928C31.4434 31.0652 31.1813 31.5821 30.6893 32.0064C30.1598 32.5894 29.5732 33.1332 28.9725 33.5931L27.7994 34.4613C27.5962 34.5523 27.4303 34.7377 27.2449 34.8749C26.6531 35.1459 26.1289 35.5809 25.5495 35.8858C25.2358 35.9802 24.9988 36.2585 24.6795 36.3422C24.5138 36.4776 24.298 36.5026 24.1483 36.6792C23.9664 36.8466 23.6633 36.7576 23.4298 36.7664C23.0358 36.688 22.7382 36.3796 22.3869 36.2013C22.23 36.0195 22.025 35.9553 21.8431 35.8305C21.2334 35.3402 20.5863 34.9427 19.9855 34.4293L18.8873 33.4736C18.3988 33.0226 17.9335 32.5787 17.4753 32.1259C17.347 31.953 17.1901 31.83 17.0296 31.6909C16.1899 30.7906 15.4412 29.8528 14.6817 28.9186C14.8564 28.8758 15.0312 28.7832 15.2361 28.7885L15.2683 28.7671L29.19 28.7243L31.6894 28.7351ZM33.6237 29.8974C33.6255 29.9794 33.7005 30.0294 33.7432 30.0935C33.8306 30.3466 33.9179 30.5998 34.0053 30.853C33.9945 30.9385 34.0159 31.0135 34.048 31.0812L34.0801 40.972C34.0177 41.0576 34.0677 41.1895 34.0373 41.2876C33.9679 41.6174 33.8341 41.9205 33.7432 42.2431C32.859 41.2662 31.8694 40.3142 30.8319 39.5922L29.7765 38.8524L28.3967 38.059C27.7424 37.7024 27.0881 37.3441 26.3749 37.1249C26.2716 37.0802 26.1022 37.0659 26.0059 37.1355C25.9774 37.1747 25.9132 37.2015 25.9186 37.255C26.1521 37.5313 26.4409 37.6685 26.7013 37.8736L28.9938 39.2659C29.7016 39.7544 30.438 40.1734 31.1029 40.7652C31.8321 41.4053 32.711 42.0969 33.1888 42.9278C33.0051 43.0918 32.7823 43.1649 32.5915 43.32C32.4471 43.3306 32.3561 43.4786 32.1904 43.4395C32.0799 43.5357 31.8998 43.4715 31.7768 43.5357L15.4216 43.5803C15.3181 43.5304 15.1879 43.5428 15.0721 43.525C14.7477 43.4269 14.4392 43.2807 14.138 43.1239C14.3269 43.0116 14.5016 42.8672 14.7031 42.7869C14.8993 42.5766 15.1417 42.3858 15.2896 42.1558C15.468 42.0435 15.5856 41.8777 15.7246 41.7207L17.1169 40.3623L18.4416 39.2552C19.2046 38.6473 20.0087 38.1393 20.8323 37.6793C21.0391 37.5848 21.0498 37.353 21.1586 37.189C21.1478 37.1426 21.1853 37.0571 21.1264 37.0482C21.1318 37.0126 21.089 36.9981 21.0712 36.9715C20.7967 36.9126 20.6095 37.0678 20.376 37.1141C20.2048 37.2121 20.0336 37.312 19.8553 37.3958L18.5397 38.1677L17.1169 39.1678L15.6051 40.3749C15.1488 40.7135 14.7387 41.1878 14.3234 41.6014C14.2574 41.6941 14.1968 41.8153 14.0951 41.8634C14.072 41.9365 13.9615 41.9722 13.9971 42.0684C13.9151 42.0969 13.9775 42.1843 13.9437 42.2325L13.7689 42.7423C13.6459 42.5837 13.4533 42.3876 13.3999 42.1665C13.3161 41.9277 13.1663 41.7155 13.1503 41.4499C13.079 41.3839 13.1556 41.2555 13.0843 41.1895L13.0415 31.354C13.1023 31.19 13.0987 30.9992 13.1272 30.8209C13.218 30.5928 13.2625 30.3448 13.3999 30.1363C13.4106 29.9633 13.6281 29.876 13.6388 29.7013L13.8455 29.4624C14.1058 29.6835 14.2308 29.9598 14.4642 30.1916L15.7692 31.6909C16.2773 32.2935 16.9084 32.7909 17.4646 33.3756C17.93 33.8623 18.4577 34.201 18.9193 34.7002C19.4845 35.1352 20.0229 35.6255 20.5827 36.0712C21.2993 36.6131 22.0018 37.189 22.7346 37.6899C23.0626 37.8594 23.4923 37.7541 23.8006 37.6133C23.97 37.599 24.1019 37.4921 24.2571 37.4403C24.6421 37.2781 24.9951 37.0357 25.3874 36.886C25.694 36.7736 25.9381 36.5115 26.2556 36.4295C27.1896 35.8483 28.1221 35.2653 29.0278 34.6146C29.5126 34.1581 30.0528 33.8391 30.5164 33.3311C30.9602 32.8979 31.4862 32.4557 31.8089 31.9511C32.2243 31.5269 32.4417 31.0187 32.777 30.5606C32.9446 30.188 33.0765 29.8029 33.2441 29.4304L33.6237 29.8974Z" fill="white"/>
<path fill-rule="evenodd" clip-rule="evenodd" d="M46.21 43.131V28.0476H56.5503V29.5638H47.9593V34.462H53.1683C54.8399 34.462 56.045 34.7729 56.7447 35.4727C57.4444 36.1336 57.7943 37.261 57.7943 38.816C57.7943 40.3709 57.4444 41.4594 56.7447 42.1203C56.045 42.82 54.8399 43.131 53.2072 43.131H46.21ZM47.9593 41.6149V35.9392H52.8185C54.1013 35.9392 54.9565 36.1336 55.3841 36.5223C55.8118 36.911 56.045 37.6885 56.045 38.816C56.045 39.8656 55.8506 40.6042 55.4619 41.0318C55.0731 41.4206 54.2568 41.6149 53.0906 41.6149H47.9593Z" fill="white"/>
<path fill-rule="evenodd" clip-rule="evenodd" d="M85.1719 28.0476H97.7606V43.1309H96.0457V29.5673H86.8868V43.1309H85.1719V28.0476Z" fill="white"/>
<path fill-rule="evenodd" clip-rule="evenodd" d="M60.8253 34.6734H68.7753V36.1545H60.8253V41.6498H69.0871V43.1309H59.0715V28.0476H69.1261V29.5287H60.8253V34.6734Z" fill="white"/>
<path fill-rule="evenodd" clip-rule="evenodd" d="M105.631 43.131C108.26 43.131 109.974 42.674 110.812 41.7218C111.65 40.7695 112.069 38.7127 112.069 35.5894C112.069 32.5041 111.65 30.4472 110.812 29.495C109.974 28.5427 108.26 28.0476 105.65 28.0476C103.041 28.0476 101.327 28.5427 100.489 29.495C99.6507 30.4472 99.2317 32.466 99.2317 35.5894C99.2317 38.7127 99.6507 40.7314 100.489 41.6837C101.327 42.674 103.041 43.131 105.631 43.131ZM105.631 41.6837C107.726 41.6837 109.021 41.3408 109.555 40.6171C110.088 39.8935 110.355 38.2175 110.355 35.5894C110.355 32.9611 110.088 31.2472 109.555 30.5615C109.021 29.8378 107.726 29.495 105.631 29.495C103.536 29.495 102.241 29.8378 101.708 30.5615C101.212 31.2472 100.946 32.923 100.946 35.5894C100.946 38.2556 101.212 39.9316 101.746 40.6171C102.279 41.3408 103.574 41.6837 105.631 41.6837Z" fill="white"/>
<path fill-rule="evenodd" clip-rule="evenodd" d="M70.1489 43.131L75.81 28.0476H78.304L84.044 43.131H82.2229C80.5209 38.4991 78.8186 33.9464 77.0768 29.2749C75.4141 33.9068 73.8305 38.5783 72.0095 43.131H70.1489Z" fill="white"/>
<path fill-rule="evenodd" clip-rule="evenodd" d="M26.1766 14.469L8.71258 0C7.85683 10.4239 0 18.203 0 28.7826C0 42.357 11.0074 53.3644 24.5819 53.3644C31.7386 53.3644 39.2843 53.3255 46.4411 53.3255V49.6694H33.695C37.9109 46.5522 40.6456 41.5458 40.6456 35.9004C40.6456 26.4099 32.9832 18.7476 23.5316 18.7476C15.6711 18.7476 9.04943 24.0472 7.04237 31.2907C7.71202 20.999 16.8172 16.004 26.1766 14.469ZM23.5316 49.7082C15.9081 49.7082 9.72379 43.5239 9.72379 35.9004C9.72379 28.2769 15.9081 22.0925 23.5316 22.0925C31.1551 22.0925 37.3395 28.2769 37.3395 35.9004C37.3395 43.5239 31.1551 49.7082 23.5316 49.7082Z" fill="white"/>
<path fill-rule="evenodd" clip-rule="evenodd" d="M147.423 40.0597L148.589 43.1308H150.455L144.663 28.0474H142.136L136.46 43.1308H138.326L139.57 40.0597H147.423ZM139.998 38.5824L143.419 29.3108L146.878 38.5824H139.998Z" fill="white"/>
<path fill-rule="evenodd" clip-rule="evenodd" d="M133.548 29.5671V43.1307H131.795V29.5671H126.689V28.0474H138.615V29.5671H133.548Z" fill="white"/>
<path d="M123.427 43.131V36.0424C122.756 36.217 121.997 36.3177 121.152 36.3444C120.306 36.3714 119.547 36.3848 118.876 36.3848C116.822 36.3848 115.453 36.0626 114.768 35.4181C114.083 34.7738 113.741 33.4917 113.741 31.5719V28.0476H115.412V31.8739C115.412 33.203 115.721 34.0623 116.339 34.4516C116.809 34.7468 117.789 34.8946 119.279 34.8946H119.742C120.574 34.8946 121.279 34.8779 121.856 34.8442C122.434 34.8106 122.957 34.7334 123.427 34.6126V28.0476H125.099V43.131H123.427Z" fill="white"/>
</svg>
