<svg width="849" height="819" viewBox="0 0 849 819" fill="none" xmlns="http://www.w3.org/2000/svg">
<g filter="url(#filter0_i)">
<path d="M233.402 559.724C221.067 246.132 453.109 414.905 797.907 227.308L899.249 149.112L869.087 235.191C867.058 276.945 798.4 377.886 540 447.629C216.999 534.807 468.952 565.693 388.555 686.448C324.238 783.052 304.127 898.272 304.127 898.272L6.00007 865.252C6.00007 865.252 245.737 873.316 233.402 559.724Z" fill="#3F7BF0" fill-opacity="0.01"/>
</g>
<path d="M233.402 559.724C221.067 246.132 453.109 414.905 797.907 227.308L899.249 149.112L869.087 235.191C867.058 276.945 798.4 377.886 540 447.629C216.999 534.807 468.952 565.693 388.555 686.448C324.238 783.052 304.127 898.272 304.127 898.272L6.00007 865.252C6.00007 865.252 245.737 873.316 233.402 559.724Z" stroke="white" stroke-opacity="0.1" stroke-width="104"/>
<g filter="url(#filter1_i)">
<path d="M466.784 585.363C427.262 258.406 707.264 417.296 1087.87 195.024L1197.87 105.586L1170.22 197.875C1171.26 241.686 1100.62 352.432 809.65 444.93C543 529.697 782.018 588.783 699.5 721.135C633.486 827.016 575.348 933.99 575.348 933.99L230.469 922.049C230.469 922.049 506.306 912.319 466.784 585.363Z" fill="#2680CD" fill-opacity="0.03"/>
</g>
<path d="M466.784 585.363C427.262 258.406 707.264 417.296 1087.87 195.024L1197.87 105.586L1170.22 197.875C1171.26 241.686 1100.62 352.432 809.65 444.93C543 529.697 782.018 588.783 699.5 721.135C633.486 827.016 575.348 933.99 575.348 933.99L230.469 922.049C230.469 922.049 506.306 912.319 466.784 585.363Z" stroke="white" stroke-opacity="0.01" stroke-width="9"/>
<g clip-path="url(#clip0)" filter="url(#filter2_d)">
<path d="M646.426 386.257L580.356 406.544C574.194 408.436 570.72 414.988 572.612 421.15L585.637 463.568C587.529 469.729 594.081 473.203 600.242 471.311L666.313 451.024C672.475 449.132 675.948 442.58 674.056 436.419L661.032 394.001C659.14 387.839 652.588 384.365 646.426 386.257ZM646.894 394.001L623.026 427.78L584.315 413.216L646.894 394.001ZM664.1 443.817L598.029 464.104C595.842 464.775 593.516 463.542 592.845 461.355L580.044 419.666L623.097 435.863C623.899 436.165 624.754 436.176 625.531 435.938C626.308 435.699 627.009 435.21 627.503 434.51L654.048 396.943L666.848 438.632C667.52 440.819 666.287 443.145 664.1 443.817Z" fill="white"/>
</g>
<g clip-path="url(#clip1)" filter="url(#filter3_d)">
<path d="M541.752 358.312L513.566 356.373C510.937 356.192 508.652 358.183 508.471 360.812L507.226 378.907C507.045 381.536 509.036 383.822 511.665 384.003L539.851 385.942C542.479 386.123 544.765 384.131 544.946 381.503L546.191 363.407C546.372 360.779 544.38 358.493 541.752 358.312ZM540.795 361.336L526.738 370.729L514.099 359.499L540.795 361.336ZM540.062 382.867L511.876 380.928C510.943 380.864 510.236 380.052 510.301 379.119L511.524 361.335L525.58 373.824C525.842 374.057 526.167 374.186 526.498 374.209C526.83 374.232 527.169 374.148 527.46 373.953L543.094 363.507L541.871 381.291C541.807 382.225 540.995 382.931 540.062 382.867Z" fill="white"/>
</g>
<g clip-path="url(#clip2)" filter="url(#filter4_d)">
<path d="M451.44 536.322L346.625 541.336C336.85 541.803 329.278 550.136 329.745 559.911L332.964 627.203C333.432 636.978 341.765 644.55 351.539 644.083L456.355 639.069C466.13 638.602 473.702 630.269 473.234 620.494L470.016 553.202C469.548 543.427 461.215 535.855 451.44 536.322ZM449.218 547.89L401.414 588.609L349.941 552.638L449.218 547.89ZM455.808 627.635L350.992 632.649C347.523 632.815 344.565 630.127 344.399 626.657L341.236 560.521L398.48 600.526C399.548 601.272 400.8 601.61 402.033 601.551C403.265 601.492 404.48 601.036 405.471 600.192L458.636 554.906L461.799 621.041C461.965 624.511 459.277 627.469 455.808 627.635Z" fill="white"/>
</g>
<g clip-path="url(#clip3)" filter="url(#filter5_d)">
<path d="M767.582 552.642L598.909 641.382C583.18 649.657 577.115 669.188 585.39 684.918L642.362 793.207C650.638 808.937 670.169 815.002 685.898 806.727L854.571 717.987C870.301 709.711 876.366 690.18 868.09 674.45L811.119 566.161C802.843 550.431 783.312 544.366 767.582 552.642ZM772.807 573.388L725.391 677.12L613.048 657.439L772.807 573.388ZM844.891 699.586L676.218 788.326C670.635 791.263 663.702 789.11 660.765 783.527L604.772 677.099L729.714 698.987C732.044 699.395 734.365 698.99 736.348 697.947C738.332 696.903 739.981 695.22 740.964 693.069L793.697 577.705L849.689 684.132C852.627 689.716 850.474 696.649 844.891 699.586Z" fill="white"/>
</g>
<defs>
<filter id="filter0_i" x="0.887695" y="0.140015" width="1005.81" height="959.195" filterUnits="userSpaceOnUse" color-interpolation-filters="sRGB">
<feFlood flood-opacity="0" result="BackgroundImageFix"/>
<feBlend mode="normal" in="SourceGraphic" in2="BackgroundImageFix" result="shape"/>
<feColorMatrix in="SourceAlpha" type="matrix" values="0 0 0 0 0 0 0 0 0 0 0 0 0 0 0 0 0 0 127 0" result="hardAlpha"/>
<feOffset dy="4"/>
<feGaussianBlur stdDeviation="76"/>
<feComposite in2="hardAlpha" operator="arithmetic" k2="-1" k3="1"/>
<feColorMatrix type="matrix" values="0 0 0 0 0.505882 0 0 0 0 0.788235 0 0 0 0 0.964706 0 0 0 0.25 0"/>
<feBlend mode="normal" in2="shape" result="effect1_innerShadow"/>
</filter>
<filter id="filter1_i" x="230.291" y="92.8483" width="976.103" height="849.735" filterUnits="userSpaceOnUse" color-interpolation-filters="sRGB">
<feFlood flood-opacity="0" result="BackgroundImageFix"/>
<feBlend mode="normal" in="SourceGraphic" in2="BackgroundImageFix" result="shape"/>
<feColorMatrix in="SourceAlpha" type="matrix" values="0 0 0 0 0 0 0 0 0 0 0 0 0 0 0 0 0 0 127 0" result="hardAlpha"/>
<feOffset dy="4"/>
<feGaussianBlur stdDeviation="27"/>
<feComposite in2="hardAlpha" operator="arithmetic" k2="-1" k3="1"/>
<feColorMatrix type="matrix" values="0 0 0 0 0.245868 0 0 0 0 0.518173 0 0 0 0 0.808333 0 0 0 0.07 0"/>
<feBlend mode="normal" in2="shape" result="effect1_innerShadow"/>
</filter>
<filter id="filter2_d" x="547.55" y="357" width="151.569" height="151.569" filterUnits="userSpaceOnUse" color-interpolation-filters="sRGB">
<feFlood flood-opacity="0" result="BackgroundImageFix"/>
<feColorMatrix in="SourceAlpha" type="matrix" values="0 0 0 0 0 0 0 0 0 0 0 0 0 0 0 0 0 0 127 0" result="hardAlpha"/>
<feOffset dy="4"/>
<feGaussianBlur stdDeviation="9"/>
<feColorMatrix type="matrix" values="0 0 0 0 0.645833 0 0 0 0 0.645833 0 0 0 0 0.645833 0 0 0 0.1 0"/>
<feBlend mode="normal" in2="BackgroundImageFix" result="effect1_dropShadow"/>
<feBlend mode="normal" in="SourceGraphic" in2="effect1_dropShadow" result="shape"/>
</filter>
<filter id="filter3_d" x="488.55" y="337" width="76.3156" height="76.3156" filterUnits="userSpaceOnUse" color-interpolation-filters="sRGB">
<feFlood flood-opacity="0" result="BackgroundImageFix"/>
<feColorMatrix in="SourceAlpha" type="matrix" values="0 0 0 0 0 0 0 0 0 0 0 0 0 0 0 0 0 0 127 0" result="hardAlpha"/>
<feOffset dy="4"/>
<feGaussianBlur stdDeviation="9"/>
<feColorMatrix type="matrix" values="0 0 0 0 0.645833 0 0 0 0 0.645833 0 0 0 0 0.645833 0 0 0 0.1 0"/>
<feBlend mode="normal" in2="BackgroundImageFix" result="effect1_dropShadow"/>
<feBlend mode="normal" in="SourceGraphic" in2="effect1_dropShadow" result="shape"/>
</filter>
<filter id="filter4_d" x="310" y="502.714" width="182.98" height="182.98" filterUnits="userSpaceOnUse" color-interpolation-filters="sRGB">
<feFlood flood-opacity="0" result="BackgroundImageFix"/>
<feColorMatrix in="SourceAlpha" type="matrix" values="0 0 0 0 0 0 0 0 0 0 0 0 0 0 0 0 0 0 127 0" result="hardAlpha"/>
<feOffset dy="4"/>
<feGaussianBlur stdDeviation="9"/>
<feColorMatrix type="matrix" values="0 0 0 0 0.645833 0 0 0 0 0.645833 0 0 0 0 0.645833 0 0 0 0.1 0"/>
<feBlend mode="normal" in2="BackgroundImageFix" result="effect1_dropShadow"/>
<feBlend mode="normal" in="SourceGraphic" in2="effect1_dropShadow" result="shape"/>
</filter>
<filter id="filter5_d" x="536.498" y="493.442" width="380.485" height="380.485" filterUnits="userSpaceOnUse" color-interpolation-filters="sRGB">
<feFlood flood-opacity="0" result="BackgroundImageFix"/>
<feColorMatrix in="SourceAlpha" type="matrix" values="0 0 0 0 0 0 0 0 0 0 0 0 0 0 0 0 0 0 127 0" result="hardAlpha"/>
<feOffset dy="4"/>
<feGaussianBlur stdDeviation="9"/>
<feColorMatrix type="matrix" values="0 0 0 0 0.645833 0 0 0 0 0.645833 0 0 0 0 0.645833 0 0 0 0.1 0"/>
<feBlend mode="normal" in2="BackgroundImageFix" result="effect1_dropShadow"/>
<feBlend mode="normal" in="SourceGraphic" in2="effect1_dropShadow" result="shape"/>
</filter>
<clipPath id="clip0">
<rect width="92.494" height="92.494" fill="white" transform="translate(565.55 398.149) rotate(-17.0691)"/>
</clipPath>
<clipPath id="clip1">
<rect width="37.8092" height="37.8092" fill="white" transform="translate(509.146 351) rotate(3.93631)"/>
</clipPath>
<clipPath id="clip2">
<rect width="140.431" height="140.431" fill="white" transform="translate(328 523.423) rotate(-2.73842)"/>
</clipPath>
<clipPath id="clip3">
<rect width="255.062" height="255.062" fill="white" transform="translate(554.498 626.199) rotate(-27.7491)"/>
</clipPath>
</defs>
</svg>
