<svg width="60" height="60" viewBox="0 0 60 60" fill="none" xmlns="http://www.w3.org/2000/svg">
<g filter="url(#filter0_d)">
<path d="M13.4387 42.9908C13.4387 42.9908 13.4032 44 14.2766 44C15.3632 44 24.3595 43.9866 24.3595 43.9866L24.3744 34.6615C24.3744 34.6615 24.2322 33.1243 25.5542 33.1243H29.7378C31.3011 33.1243 31.2048 34.6615 31.2048 34.6615L31.1871 43.9566C31.1871 43.9566 39.7171 43.9566 41.0568 43.9566C42.1656 43.9566 42.1153 42.7001 42.1153 42.7001V25.5085L28.2056 11.5434L13.4387 25.5085V42.9908Z" fill="url(#paint0_linear)"/>
<path d="M8 24.2092C8 24.2092 9.25389 26.8174 11.9882 24.2092L28.3286 8.60659L43.6491 24.1123C46.8142 26.6887 48 24.1123 48 24.1123L28.3286 4L8 24.2092Z" fill="url(#paint1_linear)"/>
<path d="M43.2778 8.56895H39.337L39.3533 13.9625L43.2778 17.7203V8.56895Z" fill="url(#paint2_linear)"/>
</g>
<defs>
<filter id="filter0_d" x="0" y="0" width="60" height="60" filterUnits="userSpaceOnUse" color-interpolation-filters="sRGB">
<feFlood flood-opacity="0" result="BackgroundImageFix"/>
<feColorMatrix in="SourceAlpha" type="matrix" values="0 0 0 0 0 0 0 0 0 0 0 0 0 0 0 0 0 0 127 0" result="hardAlpha"/>
<feOffset dx="2" dy="6"/>
<feGaussianBlur stdDeviation="5"/>
<feComposite in2="hardAlpha" operator="out"/>
<feColorMatrix type="matrix" values="0 0 0 0 0.121569 0 0 0 0 0.113725 0 0 0 0 0.443137 0 0 0 0.3 0"/>
<feBlend mode="normal" in2="BackgroundImageFix" result="effect1_dropShadow"/>
<feBlend mode="normal" in="SourceGraphic" in2="effect1_dropShadow" result="shape"/>
</filter>
<linearGradient id="paint0_linear" x1="46.3484" y1="21.8408" x2="8.2856" y2="33.1428" gradientUnits="userSpaceOnUse">
<stop stop-color="#5F9BFE"/>
<stop offset="1" stop-color="#13266B"/>
</linearGradient>
<linearGradient id="paint1_linear" x1="46.3484" y1="21.8408" x2="8.2856" y2="33.1428" gradientUnits="userSpaceOnUse">
<stop stop-color="#5F9BFE"/>
<stop offset="1" stop-color="#13266B"/>
</linearGradient>
<linearGradient id="paint2_linear" x1="46.3484" y1="21.8408" x2="8.2856" y2="33.1428" gradientUnits="userSpaceOnUse">
<stop stop-color="#5F9BFE"/>
<stop offset="1" stop-color="#13266B"/>
</linearGradient>
</defs>
</svg>
