<svg width="1080" height="608" viewBox="0 0 1080 608" fill="none" xmlns="http://www.w3.org/2000/svg">
<rect width="1080" height="608" fill="url(#paint0_radial)"/>
<rect width="1080" height="608" fill="url(#paint1_linear)" fill-opacity="0.72"/>
<path fill-rule="evenodd" clip-rule="evenodd" d="M384.362 292.401C385.279 292.576 386.106 292.983 386.997 293.228C388.179 293.945 389.394 294.572 390.382 295.747C390.692 295.825 390.77 296.2 390.899 296.458C391.693 297.414 392.578 298.331 392.785 299.533C393.095 300.037 393.134 300.644 393.457 301.142C393.709 301.885 393.689 302.737 393.851 303.506L393.967 340.01C393.728 340.45 393.954 341.083 393.773 341.548C393.483 342.375 393.464 343.318 392.985 344.067C392.662 345.294 391.984 346.374 391.131 347.375C390.738 348.247 389.749 348.699 389.084 349.422C388.199 349.965 387.411 350.76 386.37 350.921C385.705 351.393 384.872 351.451 384.084 351.625C383.702 351.567 383.431 351.729 383.102 351.787L322.457 351.748C321.875 351.554 321.177 351.664 320.648 351.354C320.267 351.031 319.672 351.212 319.343 350.76C318.723 350.837 318.393 350.198 317.851 350.094C316.727 349.087 315.461 348.176 314.66 346.903C313.962 345.772 313.329 344.616 312.928 343.357C312.65 342.814 312.496 342.226 312.457 341.587C312.476 341.244 312.437 340.934 312.334 340.643L312.179 304.177C312.373 303.725 312.308 303.176 312.373 302.679C312.709 301.787 312.631 300.722 313.2 299.921C313.309 299.158 313.917 298.596 314.149 297.873C314.789 297.427 314.731 296.787 315.37 296.342C316.262 295.024 317.605 294.307 318.833 293.544C320.008 292.853 321.384 292.64 322.734 292.363L382.236 292.207C383.044 292.033 383.58 292.517 384.362 292.401ZM382.469 295.121C382.83 295.353 383.36 295.166 383.767 295.276L385.854 296.026V296.219C385.311 298.273 383.89 299.966 382.94 301.852C381.577 303.564 380.628 305.437 378.845 306.975C376.926 309.087 374.801 311.057 372.624 312.724L368.373 315.87C367.637 316.2 367.036 316.871 366.364 317.369C364.22 318.35 362.32 319.927 360.221 321.031C359.084 321.374 358.225 322.382 357.069 322.685C356.468 323.176 355.686 323.267 355.144 323.906C354.485 324.513 353.386 324.19 352.54 324.222C351.113 323.938 350.034 322.821 348.761 322.175C348.193 321.516 347.45 321.283 346.791 320.831C344.582 319.054 342.237 317.614 340.06 315.754L336.08 312.291C334.311 310.657 332.624 309.048 330.964 307.408C330.499 306.781 329.931 306.335 329.349 305.831C326.307 302.569 323.594 299.171 320.842 295.786C321.475 295.631 322.108 295.295 322.851 295.315L322.967 295.237L373.412 295.082L382.469 295.121ZM389.478 299.333C389.484 299.63 389.756 299.811 389.91 300.043C390.227 300.96 390.543 301.878 390.86 302.795C390.821 303.105 390.899 303.377 391.015 303.622L391.131 339.461C390.905 339.771 391.086 340.249 390.976 340.605C390.725 341.8 390.24 342.898 389.91 344.067C386.707 340.527 383.121 337.078 379.362 334.461L375.537 331.781L370.538 328.906C368.167 327.614 365.796 326.316 363.212 325.521C362.837 325.359 362.223 325.308 361.875 325.56C361.771 325.702 361.539 325.799 361.558 325.993C362.404 326.994 363.451 327.491 364.394 328.234L372.701 333.279C375.266 335.049 377.934 336.567 380.343 338.712C382.986 341.031 386.17 343.537 387.901 346.548C387.236 347.142 386.429 347.407 385.737 347.969C385.214 348.008 384.884 348.544 384.284 348.402C383.883 348.751 383.231 348.518 382.785 348.751L323.523 348.912C323.148 348.731 322.676 348.777 322.256 348.712C321.081 348.356 319.963 347.827 318.872 347.258C319.556 346.852 320.189 346.328 320.919 346.037C321.63 345.275 322.508 344.584 323.044 343.751C323.691 343.344 324.117 342.743 324.62 342.174L329.666 337.252L334.466 333.24C337.23 331.038 340.144 329.197 343.128 327.53C343.878 327.188 343.916 326.348 344.31 325.753C344.272 325.585 344.407 325.276 344.194 325.243C344.213 325.114 344.058 325.062 343.994 324.965C342.999 324.752 342.321 325.314 341.475 325.482C340.854 325.837 340.234 326.199 339.588 326.503L334.821 329.3L329.666 332.924L324.188 337.297C322.534 338.524 321.048 340.243 319.543 341.742C319.304 342.078 319.085 342.517 318.716 342.691C318.632 342.956 318.232 343.085 318.361 343.434C318.064 343.537 318.29 343.854 318.167 344.028L317.534 345.876C317.088 345.301 316.39 344.59 316.197 343.789C315.893 342.924 315.351 342.155 315.293 341.193C315.034 340.954 315.312 340.488 315.053 340.249L314.898 304.611C315.119 304.016 315.106 303.325 315.209 302.679C315.538 301.852 315.699 300.954 316.197 300.198C316.236 299.571 317.024 299.255 317.063 298.622L317.812 297.756C318.755 298.558 319.208 299.559 320.054 300.399L324.782 305.831C326.623 308.015 328.91 309.817 330.926 311.936C332.612 313.699 334.524 314.927 336.197 316.736C338.245 318.312 340.195 320.088 342.224 321.703C344.82 323.667 347.366 325.753 350.021 327.569C351.21 328.183 352.767 327.801 353.884 327.291C354.498 327.239 354.976 326.852 355.538 326.664C356.933 326.077 358.212 325.198 359.633 324.655C360.744 324.248 361.629 323.299 362.779 323.001C366.164 320.896 369.543 318.783 372.824 316.425C374.581 314.771 376.539 313.615 378.218 311.774C379.827 310.205 381.732 308.603 382.902 306.774C384.407 305.237 385.195 303.396 386.409 301.736C387.017 300.386 387.495 298.99 388.102 297.64L389.478 299.333Z" fill="white"/>
<path fill-rule="evenodd" clip-rule="evenodd" d="M435.083 347.284V292.63H472.552V298.124H441.422V315.872H460.297C466.354 315.872 470.72 316.999 473.256 319.535C475.791 321.929 477.059 326.014 477.059 331.649C477.059 337.283 475.791 341.227 473.256 343.622C470.72 346.157 466.354 347.284 460.438 347.284H435.083ZM441.422 341.791V321.225H459.029C463.678 321.225 466.776 321.929 468.326 323.338C469.875 324.746 470.72 327.563 470.72 331.649C470.72 335.452 470.016 338.128 468.608 339.678C467.199 341.086 464.241 341.791 460.015 341.791H441.422Z" fill="white"/>
<path fill-rule="evenodd" clip-rule="evenodd" d="M576.261 292.63H621.876V347.284H615.662V298.136H582.475V347.284H576.261V292.63Z" fill="white"/>
<path fill-rule="evenodd" clip-rule="evenodd" d="M488.042 316.638H516.848V322.005H488.042V341.917H517.978V347.284H481.687V292.63H518.12V297.996H488.042V316.638Z" fill="white"/>
<path fill-rule="evenodd" clip-rule="evenodd" d="M650.394 347.284C659.918 347.284 666.13 345.628 669.166 342.178C672.202 338.727 673.721 331.274 673.721 319.957C673.721 308.778 672.202 301.325 669.166 297.874C666.13 294.424 659.918 292.63 650.463 292.63C641.009 292.63 634.798 294.424 631.761 297.874C628.724 301.325 627.206 308.64 627.206 319.957C627.206 331.274 628.724 338.589 631.761 342.04C634.798 345.628 641.009 347.284 650.394 347.284ZM650.394 342.04C657.986 342.04 662.679 340.797 664.611 338.175C666.544 335.553 667.51 329.48 667.51 319.957C667.51 310.434 666.544 304.223 664.611 301.739C662.679 299.117 657.986 297.874 650.394 297.874C642.803 297.874 638.11 299.117 636.178 301.739C634.383 304.223 633.417 310.296 633.417 319.957C633.417 329.618 634.384 335.691 636.316 338.175C638.248 340.797 642.941 342.04 650.394 342.04Z" fill="white"/>
<path fill-rule="evenodd" clip-rule="evenodd" d="M521.826 347.284L542.338 292.63H551.375L572.174 347.284H565.576C559.408 330.501 553.24 314.004 546.928 297.077C540.904 313.86 535.166 330.787 528.567 347.284H521.826Z" fill="white"/>
<path fill-rule="evenodd" clip-rule="evenodd" d="M362.493 243.428L299.213 191C296.112 228.771 267.643 256.958 267.643 295.293C267.643 344.479 307.528 384.364 356.715 384.364C382.647 384.364 409.989 384.224 435.921 384.224V370.976H389.736C405.012 359.681 414.921 341.54 414.921 321.084C414.921 286.696 387.157 258.931 352.909 258.931C324.427 258.931 300.433 278.135 293.161 304.381C295.587 267.089 328.579 248.99 362.493 243.428ZM352.909 371.116C325.286 371.116 302.877 348.708 302.877 321.084C302.877 293.461 325.286 271.052 352.909 271.052C380.533 271.052 402.941 293.461 402.941 321.084C402.941 348.708 380.533 371.116 352.909 371.116Z" fill="white"/>
<path fill-rule="evenodd" clip-rule="evenodd" d="M801.825 336.155L806.051 347.283H812.812L791.824 292.629H782.668L762.103 347.283H768.864L773.372 336.155H801.825ZM774.921 330.802L787.317 297.207L799.853 330.802H774.921Z" fill="white"/>
<path fill-rule="evenodd" clip-rule="evenodd" d="M751.552 298.136V347.283H745.198V298.136H726.696V292.629H769.91V298.136H751.552Z" fill="white"/>
<path d="M714.878 347.283V321.598C712.446 322.231 709.697 322.596 706.632 322.692C703.568 322.79 700.82 322.839 698.387 322.839C690.944 322.839 685.983 321.671 683.501 319.336C681.02 317.001 679.78 312.356 679.78 305.399V292.629H685.836V306.494C685.836 311.31 686.955 314.423 689.193 315.834C690.896 316.904 694.447 317.439 699.847 317.439H701.525C704.541 317.439 707.095 317.378 709.186 317.256C711.279 317.135 713.176 316.855 714.878 316.417V292.629H720.935V347.283H714.878Z" fill="white"/>
<path opacity="0.2" d="M341.101 368C341.101 368 -473.193 276.816 572 117" stroke="url(#paint2_linear)" stroke-width="21" stroke-linecap="round"/>
<g opacity="0.2" filter="url(#filter0_d)">
<path d="M341.101 368C341.101 368 -473.193 276.816 572 117" stroke="url(#paint3_linear)" stroke-width="21" stroke-linecap="round"/>
</g>
<path opacity="0.2" d="M722.426 165C722.426 165 1616.16 291.422 469 513" stroke="url(#paint4_linear)" stroke-width="21" stroke-linecap="round"/>
<g opacity="0.2" filter="url(#filter1_d)">
<path d="M722.426 165C722.426 165 1616.16 291.422 469 513" stroke="url(#paint5_linear)" stroke-width="21" stroke-linecap="round"/>
</g>
<defs>
<filter id="filter0_d" x="24.4958" y="106.499" width="562.006" height="280.002" filterUnits="userSpaceOnUse" color-interpolation-filters="sRGB">
<feFlood flood-opacity="0" result="BackgroundImageFix"/>
<feColorMatrix in="SourceAlpha" type="matrix" values="0 0 0 0 0 0 0 0 0 0 0 0 0 0 0 0 0 0 127 0" result="hardAlpha"/>
<feOffset dy="4"/>
<feGaussianBlur stdDeviation="2"/>
<feColorMatrix type="matrix" values="0 0 0 0 1 0 0 0 0 1 0 0 0 0 1 0 0 0 0.25 0"/>
<feBlend mode="normal" in2="BackgroundImageFix" result="effect1_dropShadow"/>
<feBlend mode="normal" in="SourceGraphic" in2="effect1_dropShadow" result="shape"/>
</filter>
<filter id="filter1_d" x="454.498" y="154.499" width="614.019" height="377.003" filterUnits="userSpaceOnUse" color-interpolation-filters="sRGB">
<feFlood flood-opacity="0" result="BackgroundImageFix"/>
<feColorMatrix in="SourceAlpha" type="matrix" values="0 0 0 0 0 0 0 0 0 0 0 0 0 0 0 0 0 0 127 0" result="hardAlpha"/>
<feOffset dy="4"/>
<feGaussianBlur stdDeviation="2"/>
<feColorMatrix type="matrix" values="0 0 0 0 1 0 0 0 0 1 0 0 0 0 1 0 0 0 0.25 0"/>
<feBlend mode="normal" in2="BackgroundImageFix" result="effect1_dropShadow"/>
<feBlend mode="normal" in="SourceGraphic" in2="effect1_dropShadow" result="shape"/>
</filter>
<radialGradient id="paint0_radial" cx="0" cy="0" r="1" gradientUnits="userSpaceOnUse" gradientTransform="translate(540 304) rotate(90) scale(665.5 717.392)">
<stop stop-color="#00E9CD"/>
<stop offset="0.552083" stop-color="#4D7EB8"/>
</radialGradient>
<linearGradient id="paint1_linear" x1="540" y1="0" x2="540" y2="608" gradientUnits="userSpaceOnUse">
<stop stop-color="white"/>
<stop offset="0.56766" stop-color="#4791D1" stop-opacity="0"/>
<stop offset="1" stop-color="white"/>
</linearGradient>
<linearGradient id="paint2_linear" x1="305.5" y1="117" x2="305.5" y2="368" gradientUnits="userSpaceOnUse">
<stop stop-color="white"/>
<stop offset="0.458333" stop-color="#910D0D"/>
<stop offset="1" stop-color="#E37936" stop-opacity="0.01"/>
</linearGradient>
<linearGradient id="paint3_linear" x1="305.5" y1="117" x2="305.5" y2="368" gradientUnits="userSpaceOnUse">
<stop stop-color="white"/>
<stop offset="0.458333" stop-color="white" stop-opacity="0"/>
<stop offset="1" stop-color="#E37936" stop-opacity="0.01"/>
</linearGradient>
<linearGradient id="paint4_linear" x1="761.5" y1="513" x2="761.5" y2="165" gradientUnits="userSpaceOnUse">
<stop stop-color="white"/>
<stop offset="0.458333" stop-color="#910D0D"/>
<stop offset="1" stop-color="#E37936" stop-opacity="0.01"/>
</linearGradient>
<linearGradient id="paint5_linear" x1="761.5" y1="513" x2="761.5" y2="165" gradientUnits="userSpaceOnUse">
<stop stop-color="white"/>
<stop offset="0.458333" stop-color="white" stop-opacity="0"/>
<stop offset="1" stop-color="#E37936" stop-opacity="0.01"/>
</linearGradient>
</defs>
</svg>
