<svg width="80" height="78" viewBox="0 0 80 78" fill="none" xmlns="http://www.w3.org/2000/svg">
<g filter="url(#filter0_i)">
<path fill-rule="evenodd" clip-rule="evenodd" d="M47.1646 40.9018C47.5353 40.9721 47.8693 41.1362 48.2296 41.2353C48.7072 41.5245 49.198 41.7772 49.5973 42.2515C49.7227 42.2828 49.754 42.434 49.8062 42.5382C50.1273 42.9239 50.485 43.2937 50.5685 43.7785C50.6937 43.9818 50.7095 44.2268 50.84 44.4274C50.9417 44.7271 50.9339 45.0711 50.9993 45.3811L51.0461 60.1065C50.9496 60.2837 51.041 60.5391 50.9678 60.7267C50.8503 61.0602 50.8426 61.4407 50.6494 61.7429C50.5189 62.238 50.2448 62.6733 49.9002 63.0772C49.741 63.4289 49.3417 63.6113 49.0728 63.9032C48.7151 64.122 48.3966 64.4426 47.9763 64.5077C47.7074 64.6978 47.3707 64.7214 47.0523 64.7917C46.8982 64.7684 46.7886 64.8335 46.6555 64.8569L22.1492 64.8412C21.9143 64.763 21.6323 64.8074 21.4183 64.6823C21.2642 64.5519 21.024 64.625 20.891 64.4426C20.6404 64.4738 20.5072 64.2158 20.288 64.1742C19.8338 63.7677 19.3221 63.4002 18.9984 62.8869C18.7165 62.4308 18.4607 61.9645 18.2988 61.4563C18.1866 61.2374 18.1241 61.0004 18.1083 60.7423C18.1162 60.6042 18.1005 60.4791 18.0588 60.3618L17.9961 45.652C18.0745 45.4697 18.0481 45.2483 18.0745 45.0475C18.2102 44.6879 18.1787 44.2581 18.4086 43.9349C18.4529 43.6273 18.6983 43.4007 18.7922 43.1088C19.0506 42.9291 19.0271 42.671 19.2855 42.4913C19.6458 41.9597 20.1888 41.6705 20.6847 41.3629C21.1599 41.0841 21.7159 40.9981 22.2615 40.8861L46.3057 40.8236C46.6321 40.7531 46.8488 40.9485 47.1646 40.9018ZM46.3996 41.9988C46.5458 42.0925 46.7599 42.017 46.9244 42.0613L47.7675 42.3637V42.4419C47.5482 43.2705 46.974 43.9531 46.5902 44.7142C46.0395 45.4047 45.6557 46.1603 44.9352 46.7803C44.16 47.6325 43.3011 48.4273 42.4215 49.0995L40.7039 50.3686C40.4062 50.5016 40.1634 50.7725 39.8919 50.9732C39.0254 51.3692 38.2579 52.005 37.4095 52.4507C36.9501 52.5887 36.603 52.9954 36.1356 53.1177C35.893 53.3158 35.577 53.3523 35.3578 53.6104C35.0915 53.8551 34.6477 53.7249 34.3057 53.7378C33.7289 53.6232 33.2931 53.1725 32.7787 52.9119C32.549 52.6461 32.2488 52.5522 31.9825 52.3699C31.0898 51.6532 30.1423 51.0722 29.2625 50.3218L27.6545 48.9249C26.9393 48.2657 26.2579 47.6169 25.587 46.9551C25.3991 46.7023 25.1694 46.5225 24.9345 46.3193C23.705 45.0033 22.6086 43.6326 21.4966 42.2671C21.7524 42.2046 22.0083 42.0691 22.3084 42.077L22.3555 42.0457L42.74 41.9831L46.3996 41.9988ZM49.2319 43.6978C49.2346 43.8176 49.3443 43.8907 49.4068 43.9844C49.5348 44.3544 49.6626 44.7244 49.7906 45.0945C49.7749 45.2195 49.8062 45.329 49.8531 45.4281L49.9002 59.8849C49.8088 60.01 49.882 60.2028 49.8375 60.3463C49.7358 60.8283 49.5399 61.2713 49.4068 61.7429C48.1121 60.315 46.6633 58.9235 45.1441 57.8681L43.5987 56.7868L41.5783 55.6272C40.6203 55.1059 39.6623 54.5823 38.618 54.2618C38.4667 54.1964 38.2187 54.1756 38.0777 54.2773C38.0361 54.3346 37.942 54.3738 37.9499 54.4519C38.2918 54.8558 38.7147 55.0564 39.0959 55.3561L42.4527 57.3912C43.4891 58.1053 44.5672 58.7176 45.5408 59.5827C46.6086 60.5182 47.8954 61.5292 48.595 62.7436C48.3261 62.9834 47.9999 63.0902 47.7205 63.3168C47.509 63.3324 47.3758 63.5487 47.1332 63.4916C46.9714 63.6321 46.7077 63.5383 46.5276 63.6321L22.5799 63.6973C22.4285 63.6244 22.2378 63.6426 22.0682 63.6165C21.5932 63.4731 21.1415 63.2595 20.7005 63.0302C20.9771 62.8661 21.2329 62.655 21.5279 62.5377C21.8152 62.2303 22.1701 61.9514 22.3867 61.6153C22.6478 61.4512 22.8201 61.2088 23.0236 60.9793L25.0623 58.9938L27.0019 57.3756C28.1191 56.4871 29.2965 55.7445 30.5024 55.0721C30.8053 54.9341 30.8209 54.5952 30.9802 54.3555C30.9644 54.2877 31.0192 54.1627 30.9331 54.1497C30.941 54.0976 30.8783 54.0765 30.8522 54.0375C30.4502 53.9516 30.1762 54.1784 29.8343 54.246C29.5836 54.3893 29.3329 54.5353 29.0719 54.6578L27.1455 55.7861L25.0623 57.2479L22.8487 59.0121C22.1806 59.5071 21.5801 60.2004 20.972 60.8049C20.8754 60.9403 20.7866 61.1175 20.6377 61.1878C20.6038 61.2948 20.4421 61.3468 20.4942 61.4875C20.3741 61.5292 20.4655 61.6569 20.416 61.7273L20.16 62.4725C19.9799 62.2406 19.6979 61.954 19.6197 61.6308C19.497 61.2818 19.2777 60.9716 19.2542 60.5834C19.1498 60.487 19.2621 60.2993 19.1576 60.2028L19.0949 45.8268C19.1839 45.587 19.1787 45.3082 19.2204 45.0475C19.3535 44.7142 19.4186 44.3518 19.6197 44.0469C19.6353 43.7941 19.9539 43.6665 19.9695 43.4111L20.2723 43.062C20.6534 43.3851 20.8363 43.789 21.1781 44.1277L23.0889 46.3193C23.8329 47.1999 24.757 47.927 25.5714 48.7816C26.2528 49.493 27.0254 49.9882 27.7014 50.7178C28.529 51.3536 29.3173 52.0702 30.137 52.7217C31.1863 53.5138 32.2148 54.3555 33.2878 55.0877C33.7681 55.3353 34.3973 55.1814 34.8487 54.9757C35.0967 54.9547 35.2898 54.7985 35.5171 54.7228C36.0808 54.4858 36.5977 54.1314 37.1721 53.9126C37.621 53.7483 37.9785 53.3652 38.4433 53.2453C39.811 52.3959 41.1764 51.5438 42.5024 50.5927C43.2123 49.9255 44.0033 49.4592 44.6821 48.7166C45.332 48.0834 46.1021 47.4371 46.5746 46.6996C47.1828 46.0795 47.5012 45.3368 47.9921 44.6671C48.2375 44.1225 48.4306 43.5597 48.676 43.0151L49.2319 43.6978Z" fill="url(#paint0_linear)" fill-opacity="0.3"/>
<path fill-rule="evenodd" clip-rule="evenodd" d="M38.3283 21.1486L12.7571 0C11.5041 15.2361 0 26.6065 0 42.07C0 61.9111 16.1172 78 35.9933 78C46.4724 78 57.521 77.9432 68 77.9432V72.5992H49.337C55.51 68.043 59.5141 60.7255 59.5141 52.4738C59.5141 38.602 48.2948 27.4024 34.4555 27.4024C22.946 27.4024 13.2504 35.1487 10.3116 45.7361C11.2921 30.6932 24.6241 23.3923 38.3283 21.1486ZM34.4555 72.656C23.2931 72.656 14.2378 63.6166 14.2378 52.4738C14.2378 41.3309 23.2931 32.2915 34.4555 32.2915C45.618 32.2915 54.6733 41.3309 54.6733 52.4738C54.6733 63.6166 45.618 72.656 34.4555 72.656Z" fill="url(#paint1_linear)" fill-opacity="0.3"/>
</g>
<defs>
<filter id="filter0_i" x="0" y="0" width="68" height="82" filterUnits="userSpaceOnUse" color-interpolation-filters="sRGB">
<feFlood flood-opacity="0" result="BackgroundImageFix"/>
<feBlend mode="normal" in="SourceGraphic" in2="BackgroundImageFix" result="shape"/>
<feColorMatrix in="SourceAlpha" type="matrix" values="0 0 0 0 0 0 0 0 0 0 0 0 0 0 0 0 0 0 127 0" result="hardAlpha"/>
<feOffset dy="4"/>
<feGaussianBlur stdDeviation="2"/>
<feComposite in2="hardAlpha" operator="arithmetic" k2="-1" k3="1"/>
<feColorMatrix type="matrix" values="0 0 0 0 0.247059 0 0 0 0 0.517647 0 0 0 0 0.807843 0 0 0 0.6 0"/>
<feBlend mode="normal" in2="shape" result="effect1_innerShadow"/>
</filter>
<linearGradient id="paint0_linear" x1="72.5264" y1="34.7896" x2="0.19231" y2="55.6207" gradientUnits="userSpaceOnUse">
<stop stop-color="#5F9BFE"/>
<stop offset="1" stop-color="#13266B"/>
</linearGradient>
<linearGradient id="paint1_linear" x1="72.5264" y1="34.7896" x2="0.19231" y2="55.6207" gradientUnits="userSpaceOnUse">
<stop stop-color="#5F9BFE"/>
<stop offset="1" stop-color="#13266B"/>
</linearGradient>
</defs>
</svg>
